<svg xmlns="http://www.w3.org/2000/svg" enable-background="new 0 0 32 32" viewBox="0 0 32 32"><path fill="#fff9dd" d="m26 32h-20c-3.314 0-6-2.686-6-6v-20c0-3.314 2.686-6 6-6h20c3.314 0 6 2.686 6 6v20c0 3.314-2.686 6-6 6z"/><g fill="#ffd200"><path d="M16.952 16.159v-2.02c0-.455-.707-.455-.707 0v2.335c0 .174.149.315.332.315h1.111c.183 0 .332-.141.332-.315-.001-.477-.719-.268-1.068-.315zM14.73 13.795c-.571.013-.542.748-1.289 2.504-.105.325-.044.536.302.536.144 0 .255-.058.288-.152l.172-.446h1.056c.167.317.097.598.459.598.344 0 .408-.208.302-.536-.769-1.807-.728-2.491-1.29-2.504zm-.345 1.834l.346-.976.346.976z"/><path d="m22.667 8h-13.334c-.736 0-1.333.597-1.333 1.333v13.333c0 .737.597 1.334 1.333 1.334h13.333c.737 0 1.334-.597 1.334-1.333v-13.334c0-.736-.597-1.333-1.333-1.333zm-7.733 11.825c-.346.242-2.346 1.638-2.535 1.664 0 0-.077.03-.143-.009-.066-.038-.054-.139-.054-.139.02-.134.519-1.845.61-2.16-5.078-2.499-2.824-8.681 3.188-8.681 3.314 0 6 2.104 6 4.699 0 2.99-3.458 5.133-7.066 4.626z"/><path d="M19.479 15.155c.749-.785.879-.777.865-.993-.011-.176-.169-.32-.34-.32-.205 0-.193.114-1.158 1.036v-.739c0-.455-.692-.455-.692 0v2.352c0 .19.155.344.346.344s.346-.154.346-.344v-.75l.12-.119.812 1.068c.275.364.829-.052.553-.414zM13.569 13.795h-1.773c-.187 0-.34.151-.34.337 0 .479.679.302.88.337v2.043c0 .435.692.434.692 0v-2.043h.54c.45 0 .45-.674.001-.674z"/></g></svg>