<svg xmlns="http://www.w3.org/2000/svg" data-name="Layer 1" viewBox="0 0 61.94 61.94"><defs><radialGradient id="a" cx="30.97" cy="-24.76" r="60.44" gradientUnits="userSpaceOnUse"><stop offset="0" stop-color="#8fc63e"/><stop offset=".24" stop-color="#8ac43a"/><stop offset=".52" stop-color="#7cbe2d"/><stop offset=".82" stop-color="#65b519"/><stop offset="1" stop-color="#54ae0a"/></radialGradient><linearGradient id="b" x1="30.97" x2="30.97" y1="50.49" y2="11.45" gradientUnits="userSpaceOnUse"><stop offset="0" stop-color="#b7d390"/><stop offset=".08" stop-color="#c2daa1"/><stop offset=".25" stop-color="#d8e7c3"/><stop offset=".43" stop-color="#e9f2dd"/><stop offset=".61" stop-color="#f5f9f0"/><stop offset=".8" stop-color="#fdfefb"/><stop offset="1" stop-color="#fff"/></linearGradient></defs><rect width="61.94" height="61.94" fill="url(#a)" rx="16.96"/><path fill="url(#b)" d="M51.41,27.1a13.85,13.85,0,0,0-1.25-4.82,17,17,0,0,0-6.27-7.08,23.82,23.82,0,0,0-13.5-3.75c-.62.05-1.83.1-3,.27A22.51,22.51,0,0,0,20,14.06a18.27,18.27,0,0,0-7.39,6.69,13.68,13.68,0,0,0-1.86,9.92,14.59,14.59,0,0,0,3.91,7.47,21.22,21.22,0,0,0,12.23,6.23,5.79,5.79,0,0,1,1.95.54A1.23,1.23,0,0,1,29.51,46a9.59,9.59,0,0,1-.2,2.27c-.08.51-.16,1-.19,1.53a.67.67,0,0,0,.81.71,1.56,1.56,0,0,0,.43-.08,20.46,20.46,0,0,0,1.9-.87,75.24,75.24,0,0,0,11.61-8.11A27.93,27.93,0,0,0,49,35.92,13.58,13.58,0,0,0,51.41,27.1ZM23.72,32.89c0,.32-.14.45-.46.45H17.74c-.35,0-.47-.13-.47-.49V24.21c0-.43.08-.52.52-.52h1.1c.44,0,.55.12.55.56V30.8c0,.37,0,.37.38.37h3.4c.41,0,.5.09.5.51Zm3.46-.08c0,.41-.12.53-.54.54H25.48c-.33,0-.47-.15-.47-.47V24.15c0-.31.12-.45.42-.46s.89,0,1.33,0,.42.14.42.45v8.67Zm9.88,0c0,.33-.14.48-.46.48H35.36a.62.62,0,0,1-.52-.32L31.08,28c-.06-.09-.13-.17-.19-.25l-.07,0v5c0,.46-.12.58-.59.59H29.1c-.32,0-.45-.14-.45-.45V24.14c0-.32.11-.44.42-.45s.87,0,1.3,0a.74.74,0,0,1,.45.26c1.26,1.68,2.51,3.38,3.76,5.07.08.1.16.19.23.29l.08,0V24.21c0-.41.1-.51.5-.52s.81,0,1.21,0,.46.14.46.48Zm3.62-2.93c0,.31,0,.61,0,.91s.07.34.33.34c1.15,0,2.3,0,3.45,0,.42,0,.51.09.51.52v1.16c0,.37-.13.49-.5.49H39c-.4,0-.52-.11-.52-.5V24.23c0-.45.08-.54.53-.54h5.38c.46,0,.54.08.54.53v1.16c0,.37-.1.47-.48.47-1.15,0-2.3,0-3.45,0-.28,0-.38.08-.36.36s0,.61,0,.91.06.32.31.32c1.15,0,2.3,0,3.45,0,.43,0,.53.1.53.54v1.16c0,.36-.11.47-.48.47-1.16,0-2.31,0-3.47,0C40.74,29.58,40.66,29.68,40.68,29.93Z"/></svg>